<svg width="512" height="512" viewBox="0 0 512 512" fill="none" xmlns="http://www.w3.org/2000/svg">
<path d="M218.87 57.51C203.56 77.76 215.09 103.15 216.57 106.28C218.14 109.59 230.11 133.86 253.59 134.88C275.03 135.81 290.4 116.68 295.97 101.94C297.38 98.2 303.42 82.23 295.46 65.68C287.84 49.86 271.19 41.35 255.63 40.91C252.91 40.84 231.66 40.59 218.87 57.51Z" stroke="#FEDF86" stroke-width="25" stroke-miterlimit="10"/>
<path d="M139.21 331.58C139.4 311.5 139.87 294.7 140.31 282.25C140.31 282.25 140.88 265.93 143.3 241.33C144.18 232.37 145.58 219.7 152.36 205.27C153.03 203.85 153.63 202.56 154.58 200.85C163.72 184.42 178.57 176.6 183.13 174.26C193.44 168.99 204.16 168.08 225.6 166.25C240.91 164.95 236.88 164.93 269.21 165.45C292.41 165.82 300.09 167.18 305.37 168.37C311.46 169.74 323.85 172.47 334.76 179.45C347.36 187.51 353.73 198.48 356.4 203.19C356.72 203.75 357.57 205.3 358.65 207.6C365.55 222.24 367.99 237.89 370.02 255.28C371.54 268.3 372.7 278.86 373.55 294.98C374.38 310.76 374.48 324.1 374.36 334.01" stroke="#FEDF86" stroke-width="25" stroke-miterlimit="10"/>
<path d="M150.46 331.39C151.59 339.79 144.94 346.28 138.99 346.17C133.04 346.07 126.62 339.36 128.04 331C131.9 331.07 135.75 331.14 139.61 331.21C143.23 331.27 146.84 331.33 150.46 331.39Z" fill="#FEDF86"/>
<path d="M385.54 331C386.96 339.36 380.55 346.07 374.6 346.18C368.65 346.29 362 339.8 363.12 331.4C366.98 331.34 370.83 331.27 374.69 331.21C378.31 331.13 381.93 331.06 385.54 331Z" fill="#FEDF86"/>
<path d="M56.4299 388.33C62.0299 376.6 67.6399 364.86 73.2399 353.13C73.3999 352.91 75.6999 349.89 79.5599 350.11C82.8999 350.31 84.7699 352.78 85.0199 353.13C91.0999 364.81 97.1799 376.5 103.27 388.18C114.91 389.86 126.54 391.53 138.18 393.21C139.78 393.67 145.29 395.43 146.08 399.24C146.77 402.6 143.43 405.81 141.63 407.57C135.26 413.77 127.56 421.77 117.64 432.42C118.69 437.34 122.57 455.92 123.1 467.91C123.2 470.21 123.24 473.66 120.94 475.67C118.26 478.01 113.95 477.03 112.61 476.68C101.74 470.93 90.8699 465.19 79.9999 459.44C68.9399 464.9 57.8799 470.36 46.8099 475.82C44.4199 477.53 41.1899 477.46 38.9099 475.68C36.7199 473.97 35.8499 471.02 36.7499 468.35C38.4699 456.19 40.1999 444.02 41.9199 431.86C33.0099 423.05 24.1099 414.24 15.1999 405.43C14.8099 404.95 13.1599 402.79 13.4799 399.83C13.7899 396.96 15.8299 394.47 18.7199 393.37C31.2799 391.69 43.8599 390.01 56.4299 388.33Z" stroke="#FEDF86" stroke-width="25" stroke-miterlimit="10"/>
<path d="M409.23 388.33C414.83 376.6 420.44 364.86 426.04 353.13C426.2 352.91 428.5 349.89 432.36 350.11C435.7 350.31 437.57 352.78 437.82 353.13C443.9 364.81 449.98 376.5 456.07 388.18C467.71 389.86 479.34 391.53 490.98 393.21C492.58 393.67 498.09 395.43 498.88 399.24C499.57 402.6 496.23 405.81 494.43 407.57C488.06 413.77 480.36 421.77 470.44 432.42C471.49 437.34 475.37 455.92 475.9 467.91C476 470.21 476.04 473.66 473.75 475.67C471.07 478.01 466.76 477.03 465.42 476.68C454.55 470.93 443.68 465.19 432.81 459.44C421.75 464.9 410.69 470.36 399.62 475.82C397.23 477.53 394 477.46 391.72 475.68C389.53 473.97 388.66 471.02 389.57 468.35C391.29 456.19 393.02 444.02 394.74 431.86C385.83 423.05 376.93 414.24 368.02 405.43C367.63 404.95 365.98 402.79 366.3 399.83C366.61 396.96 368.65 394.47 371.54 393.37C384.08 391.69 396.66 390.01 409.23 388.33Z" stroke="#FEDF86" stroke-width="25" stroke-miterlimit="10"/>
<path d="M227.02 359.29C234.16 344.34 241.3 329.39 248.44 314.43C248.65 314.15 251.58 310.3 256.5 310.59C260.75 310.84 263.14 314 263.46 314.43C271.21 329.32 278.96 344.21 286.71 359.1C301.54 361.24 316.37 363.37 331.2 365.51C333.24 366.1 340.27 368.34 341.27 373.2C342.15 377.48 337.9 381.58 335.59 383.82C327.48 391.72 317.66 401.92 305.01 415.49C306.35 421.77 311.29 445.43 311.97 460.71C312.1 463.65 312.15 468.04 309.22 470.6C305.8 473.59 300.32 472.34 298.6 471.88C284.75 464.56 270.89 457.23 257.04 449.91C242.94 456.87 228.84 463.82 214.75 470.78C211.7 472.95 207.58 472.87 204.68 470.6C201.89 468.42 200.78 464.66 201.93 461.26C204.13 445.76 206.32 430.26 208.52 414.76C197.17 403.53 185.82 392.3 174.47 381.07C173.98 380.46 171.87 377.7 172.27 373.93C172.66 370.28 175.26 367.09 178.95 365.7C194.98 363.57 211 361.43 227.02 359.29Z" stroke="#FEDF86" stroke-width="25" stroke-miterlimit="10"/>
<rect x="180.445" y="228.078" width="25.1588" height="109.094" rx="12.5794" transform="rotate(5.10143 180.445 228.078)" fill="#FEDF86"/>
<rect x="127.512" y="302.652" width="25" height="44.1375" rx="12.5" transform="rotate(1.6203 127.512 302.652)" fill="#FEDF86"/>
<rect x="361.966" y="319.914" width="24.9636" height="27.1608" rx="12.4818" transform="rotate(0.344032 361.966 319.914)" fill="#FEDF86"/>
<rect x="306.001" y="232.237" width="25.1588" height="109.094" rx="12.5794" transform="rotate(-5.1 306.001 232.237)" fill="#FEDF86"/>
</svg>
